<svg id="Layer_1" data-name="Layer 1" xmlns="http://www.w3.org/2000/svg" viewBox="0 0 721.33 251.79"><defs><style>.cls-1{fill:#fff;}</style></defs><title>Artboard 2</title><path class="cls-1" d="M59.66,192.89a35.69,35.69,0,0,1-9.4-6.6,34.15,34.15,0,0,1-7,8.2q-3.6,2.6-4,2.8h-5v-38h8a63.14,63.14,0,0,0,8.4,17.6q12.2,17.4,31.6,17.4,11.4,0,18.2-6.8t6.8-18.2a19.16,19.16,0,0,0-3.9-11.8,41.36,41.36,0,0,0-9.7-9.2q-5.8-4-16.2-10a214.9,214.9,0,0,1-21.4-13.4,55.22,55.22,0,0,1-14-15.1q-5.8-9.1-5.8-21.5a30.25,30.25,0,0,1,5.5-17.7q5.5-7.9,16.5-12.6t27-4.7q11.6,0,23.2,6.6a46,46,0,0,1,8.8,6.4,36.77,36.77,0,0,1,7-8.2q3.6-2.6,4-2.8h5v38h-8a58.9,58.9,0,0,0-7.8-17.4,43.92,43.92,0,0,0-11.9-12.6,27.63,27.63,0,0,0-16.3-5,17.46,17.46,0,0,0-13.4,6.2q-5.6,6.2-5.6,15.8a22,22,0,0,0,4.3,13.3,44.46,44.46,0,0,0,10.6,10.3q6.3,4.4,17.1,10.6a240.55,240.55,0,0,1,20.4,12.8,51.54,51.54,0,0,1,13.2,13.9,34.24,34.24,0,0,1,5.4,19.1,33.71,33.71,0,0,1-6.2,19.7q-6.2,8.9-18.6,14.1t-30.2,5.2A57.17,57.17,0,0,1,59.66,192.89Z"/><path class="cls-1" d="M163.36,90.47v97l16,6v3h-38v-3l16-6v-124l-14-4v-3h21q10.6,0,16.6,3.8a50.3,50.3,0,0,1,11.4,10.2l64,75v-80l-16-6v-3h38v3l-16,6v134h-6Z"/><path class="cls-1" d="M307.36,90.47v97l16,6v3h-38v-3l16-6v-124l-14-4v-3h21q10.6,0,16.6,3.8a50.3,50.3,0,0,1,11.4,10.2l64,75v-80l-16-6v-3h38v3l-16,6v134h-6Z"/><path class="cls-1" d="M451.35,189.91q-21.29-15.23-27.95-49.59-4.38-22.58.24-40.28t17-28.77q12.42-11.06,30.88-14.64,11.19-2.17,23.84,2.1a46,46,0,0,1,9.86,4.61A36.77,36.77,0,0,1,510.56,54q3-3.23,3.39-3.51l4.91-1L526.1,86.8l-7.85,1.52a58.9,58.9,0,0,0-11-15.6,43.92,43.92,0,0,0-14.08-10.11,27.63,27.63,0,0,0-17-1.81q-13.55,2.63-19.44,20.07t1,52.78q7,35.93,19.67,49.46T507,193.37a33.31,33.31,0,0,0,16.56-8.61,41.68,41.68,0,0,0,10.86-16.47A35.5,35.5,0,0,0,536.12,149l4.91-1a39.89,39.89,0,0,1-1.93,22.07,45,45,0,0,1-13.29,18.67A46.77,46.77,0,0,1,504.05,199Q472.64,205.13,451.35,189.91Z"/><path class="cls-1" d="M563.7,199.5V198l6.79-1.94V142.82L560.3,150l-1.94-2.43,17.66-16h10.48V196.1L593.3,198v1.46Z"/><path class="cls-1" d="M612,183.44a51.94,51.94,0,0,1,6.45-12.71,133.56,133.56,0,0,1,9.9-12,129.47,129.47,0,0,0,8.39-9.95,30.68,30.68,0,0,0,4.61-9H606.89a18.18,18.18,0,0,1-3.3,8.73,13.61,13.61,0,0,1-2.52,2.91h-2.91V132.54h46.1v4.37a29.27,29.27,0,0,1-1.7,10.09q-1.7,4.66-5.29,12-3.49,6.89-5.68,12.23A73.9,73.9,0,0,0,627.85,184a80.48,80.48,0,0,0-1.55,16.45h-17A50.18,50.18,0,0,1,612,183.44Z"/><path class="cls-1" d="M548.36,118.82a22.66,22.66,0,0,1,2.19-10A31.07,31.07,0,0,1,555.9,101q3.16-3.35,8.28-7.91,4.74-4.19,7.44-7a28.06,28.06,0,0,0,4.56-6.42,16.6,16.6,0,0,0,1.86-7.77q0-6.14-3-9.59a9.74,9.74,0,0,0-7.72-3.44,21.16,21.16,0,0,0-5.49.74l-2,.65V75.08l-1.21.28a20.5,20.5,0,0,1-2.51.19,6.56,6.56,0,0,1-7-7,9,9,0,0,1,2.28-5.77,16.12,16.12,0,0,1,6.79-4.56,30,30,0,0,1,10.93-1.77q12.56,0,18.61,5t6,14.05a16.33,16.33,0,0,1-2.93,9.77,25.75,25.75,0,0,1-7.16,6.79,116.79,116.79,0,0,1-11.31,6.14q-6,2.88-9.63,5.07a35.51,35.51,0,0,0-6.8,5.26,17.46,17.46,0,0,0-4.42,7h34.43a17.39,17.39,0,0,1,3.16-8.37,13.1,13.1,0,0,1,2.42-2.79h2.79V123H548.36Z"/><path class="cls-1" d="M616.58,120.4a27.2,27.2,0,0,1-9.72-11.68,42.91,42.91,0,0,1-3.59-18.28,42.91,42.91,0,0,1,3.59-18.29,27.22,27.22,0,0,1,9.72-11.68,25.39,25.39,0,0,1,27.36,0,27.26,27.26,0,0,1,9.72,11.68,43,43,0,0,1,3.58,18.29,43,43,0,0,1-3.58,18.28,27.24,27.24,0,0,1-9.72,11.68,25.39,25.39,0,0,1-27.36,0Zm24.38-30q0-32.11-10.7-32.11t-10.7,32.11q0,32.11,10.7,32.1T641,90.44Z"/></svg>