<?xml version="1.0" encoding="utf-8"?>
<svg viewBox="52.015968322753906 526.917724609375 260.1326599121094 35.518798828125" width="260.1326599121094" height="35.518798828125" xmlns="http://www.w3.org/2000/svg">
  <defs>
    <linearGradient id="gradient-2" gradientUnits="userSpaceOnUse" x1="1365.623" y1="712.46" x2="1365.623" y2="883.22" gradientTransform="matrix(0.133333, 0, 0, -0.133333, -0.000022, 656.643808)">
      <stop offset="0" style="stop-color: rgb(247, 114, 41);"/>
      <stop offset="1" style="stop-color: rgb(254, 85, 9);"/>
    </linearGradient>
    <linearGradient id="gradient-3" gradientUnits="userSpaceOnUse" x1="406.758" y1="696.539" x2="406.758" y2="838.145" gradientTransform="matrix(0.014045, 0.014286, -0.013886, 0.013653, 13.09651, -0.887841)">
      <stop offset="0" style="stop-color: rgb(247, 115, 43);"/>
      <stop offset="1" style="stop-color: rgb(254, 84, 8);"/>
    </linearGradient>
    <linearGradient id="gradient-4" gradientUnits="userSpaceOnUse" x1="406.758" y1="696.539" x2="406.758" y2="838.145" gradientTransform="matrix(0.013728, 0.013963, -0.013573, 0.013346, 12.801581, -0.868254)">
      <stop offset="0" style="stop-color: rgb(247, 115, 43);"/>
      <stop offset="1" style="stop-color: rgb(254, 84, 8);"/>
    </linearGradient>
    <linearGradient id="gradient-5" gradientUnits="userSpaceOnUse" x1="406.758" y1="696.539" x2="406.758" y2="838.145" gradientTransform="matrix(0.017437, 0.017735, -0.017239, 0.01695, 16.25861, -1.102714)">
      <stop offset="0" style="stop-color: rgb(247, 115, 43);"/>
      <stop offset="1" style="stop-color: rgb(254, 84, 8);"/>
    </linearGradient>
    <linearGradient id="gradient-6" gradientUnits="userSpaceOnUse" x1="406.758" y1="696.539" x2="406.758" y2="838.145" gradientTransform="matrix(0.009106, 0.009262, -0.009003, 0.008852, 8.490798, -0.575622)">
      <stop offset="0" style="stop-color: rgb(247, 115, 43);"/>
      <stop offset="1" style="stop-color: rgb(254, 84, 8);"/>
    </linearGradient>
    <linearGradient id="gradient-7" gradientUnits="userSpaceOnUse" x1="406.758" y1="696.539" x2="406.758" y2="838.145" gradientTransform="matrix(0.009106, 0.009262, -0.009003, 0.008852, 8.490881, -0.575547)">
      <stop offset="0" style="stop-color: rgb(247, 115, 43);"/>
      <stop offset="1" style="stop-color: rgb(254, 84, 8);"/>
    </linearGradient>
  </defs>
  <path id="path166" style="fill-opacity: 1; fill-rule: nonzero; stroke: none; fill: url(#gradient-2);" d="M 52.268 549.668 C 52.268 549.668 53.499 548.93 55.864 547.694 C 58.236 546.468 61.74 544.699 66.401 542.878 C 68.741 541.996 71.349 541.039 74.297 540.309 C 77.237 539.588 80.478 538.87 84.068 538.882 C 85.852 538.896 87.726 539.02 89.612 539.556 L 90.326 539.727 C 90.632 539.804 90.786 539.886 91.023 539.967 L 91.68 540.214 L 92.389 540.538 C 93.325 540.986 94.235 541.506 95.051 542.321 C 95.849 543.106 96.573 544.262 96.612 545.573 C 96.673 546.866 96.21 548.07 95.577 549.032 C 94.276 550.962 92.448 552.336 90.382 553.342 C 89.338 553.833 88.219 554.232 86.938 554.351 C 86.301 554.407 85.609 554.403 84.867 554.142 C 84.512 554.02 84.113 553.825 83.808 553.549 C 83.682 553.478 83.133 552.904 83.014 552.563 C 82.606 551.766 82.625 550.866 82.818 550.158 C 83.012 549.436 83.343 548.818 83.735 548.288 C 84.508 547.204 85.497 546.404 86.534 545.711 C 90.783 543.028 95.969 542.511 100.915 543.042 C 103.401 543.339 105.879 543.849 108.314 544.584 C 110.731 545.319 113.12 546.035 115.606 546.633 C 120.558 547.856 125.652 548.912 130.802 550.171 C 135.958 551.423 141.342 551.986 146.761 552.343 C 149.47 552.526 152.197 552.62 154.92 552.551 C 157.637 552.482 160.368 552.254 162.944 551.639 C 164.221 551.325 165.468 550.908 166.513 550.299 L 166.89 550.062 C 166.937 550.035 167.057 549.956 167.042 549.972 L 167.25 549.813 C 167.524 549.6 167.833 549.376 168.013 549.19 C 168.446 548.831 168.853 548.355 169.161 547.915 C 169.772 546.988 169.868 546.096 169.44 545.302 C 169.002 544.496 168.026 543.838 166.977 543.542 C 165.912 543.242 164.778 543.355 163.861 543.844 C 163.401 544.095 162.993 544.455 162.649 544.9 C 162.581 544.995 162.45 545.178 162.429 545.197 L 162.172 545.663 C 162.064 545.92 161.977 546.087 161.918 546.367 C 161.66 547.368 162.046 548.486 162.934 549.386 C 163.773 550.308 164.946 551.026 166.173 551.582 C 168.652 552.696 171.396 553.331 174.15 553.682 C 176.913 554.031 179.712 554.138 182.499 554.031 C 188.073 553.838 193.575 552.984 199.118 552.299 C 204.653 551.607 210.101 550.596 215.466 549.494 C 220.837 548.42 226.163 547.404 231.471 546.688 C 236.771 545.994 242.11 545.635 247.358 546.571 C 248.663 546.821 249.961 547.199 251.201 547.755 C 252.441 548.303 253.609 549.148 254.485 550.248 C 254.685 550.543 254.889 550.831 255.071 551.128 L 255.473 552.103 C 255.701 552.795 255.825 553.291 255.945 553.988 C 256.173 555.28 256.233 556.608 255.863 557.903 C 255.533 559.194 254.671 560.419 253.447 561.035 C 252.235 561.643 250.866 561.776 249.597 561.539 C 248.33 561.311 247.077 560.745 246.187 559.671 C 245.75 559.135 245.45 558.436 245.409 557.709 C 245.362 556.975 245.585 556.302 245.878 555.696 C 246.341 554.699 247.098 553.588 247.885 552.727 C 248.702 551.838 249.675 551.12 250.699 550.533 C 252.794 549.404 255.121 548.99 257.329 549.006 C 259.547 549.007 261.681 549.395 263.678 549.988 C 265.605 550.559 267.506 550.938 269.414 551.25 C 273.206 551.883 276.861 552.158 280.29 552.27 C 287.153 552.495 293.146 551.902 297.914 550.826 C 302.689 549.747 306.192 548.099 308.296 546.614 C 309.355 545.878 310.09 545.212 310.554 544.739 C 311.014 544.262 311.251 544.015 311.251 544.015 L 311.286 543.979 C 311.478 543.78 311.796 543.774 311.995 543.966 C 312.191 544.155 312.2 544.464 312.019 544.664 C 312.019 544.664 311.774 544.936 311.296 545.462 C 310.816 545.982 310.051 546.715 308.951 547.528 C 307.846 548.327 306.416 549.24 304.613 550.036 C 302.81 550.835 300.659 551.542 298.209 552.114 C 293.305 553.272 287.197 553.748 280.249 553.519 C 276.773 553.397 273.085 553.076 269.214 552.528 C 267.291 552.245 265.279 551.879 263.294 551.325 C 261.385 550.791 259.374 550.446 257.337 550.468 C 253.283 550.406 249.021 552.313 247.089 556.343 C 246.619 557.184 246.61 558.125 247.21 558.872 C 247.785 559.624 248.779 560.156 249.823 560.364 C 250.869 560.594 251.999 560.503 252.954 560.059 C 253.894 559.596 254.622 558.73 254.862 557.646 C 255.07 556.566 254.961 555.385 254.687 554.271 C 254.575 553.756 254.35 553.054 254.153 552.586 L 253.798 551.852 L 253.302 551.208 C 251.83 549.576 249.425 548.844 247.019 548.506 C 242.135 547.827 236.93 548.244 231.683 548.635 C 226.422 549.092 221.074 549.821 215.673 550.66 C 210.263 551.466 204.838 552.564 199.373 553.779 C 196.647 554.367 193.851 554.895 191.063 555.266 C 188.237 555.642 185.387 555.779 182.526 555.782 C 176.825 555.715 171 555.29 165.52 553.045 C 164.18 552.426 162.824 551.742 161.668 550.636 C 160.514 549.606 159.57 547.839 159.841 546.012 C 159.88 545.588 160.044 545.087 160.192 544.687 L 160.405 544.2 C 160.552 543.909 160.632 543.806 160.75 543.6 C 161.209 542.883 161.822 542.226 162.568 541.732 C 164.068 540.714 165.977 540.542 167.636 540.946 C 169.3 541.344 170.902 542.336 171.826 544.028 C 172.277 544.87 172.477 545.896 172.357 546.856 C 172.241 547.818 171.862 548.688 171.377 549.392 C 170.874 550.096 170.352 550.692 169.697 551.221 C 169.364 551.515 169.096 551.688 168.808 551.897 L 168.594 552.052 L 168.296 552.233 L 167.774 552.538 C 166.368 553.292 164.912 553.703 163.474 554.012 C 151.904 555.894 141.057 553.097 130.529 551.603 C 125.236 550.866 120.137 549.566 115.2 548.155 C 112.739 547.442 110.304 546.736 107.899 546.04 C 105.526 545.403 103.135 544.962 100.765 544.835 C 98.401 544.728 96.062 544.826 93.854 545.3 C 91.643 545.727 89.536 546.488 87.781 547.63 C 86.912 548.194 86.101 548.855 85.562 549.611 C 84.986 550.348 84.784 551.204 85 551.567 C 85.206 551.995 85.826 552.264 86.758 552.17 C 87.643 552.102 88.591 551.795 89.469 551.388 C 91.224 550.567 92.836 549.336 93.823 547.886 C 94.312 547.16 94.573 546.382 94.549 545.68 C 94.542 544.976 94.163 544.33 93.609 543.76 C 93.062 543.188 92.294 542.725 91.536 542.356 L 90.966 542.083 L 90.314 541.832 C 90.112 541.762 89.846 541.633 89.701 541.609 L 89.073 541.45 C 87.43 540.946 85.714 540.792 84.057 540.745 C 80.718 540.664 77.562 541.29 74.7 541.936 C 71.823 542.582 69.25 543.49 66.92 544.272 C 62.281 545.92 58.756 547.564 56.372 548.704 C 53.988 549.859 52.764 550.543 52.764 550.543 C 52.521 550.678 52.215 550.591 52.08 550.348 C 51.947 550.113 52.028 549.813 52.26 549.672 L 52.268 549.668" transform="matrix(1, 0, 0, 1, 0, 5.684341886080802e-14)"/>
  <ellipse transform="matrix(-0.707092, 0.707124, -0.707088, -0.707126, 109.357956, 539.127184)" cx="8.149" cy="15.373" rx="1.419" ry="1.419" style="fill: url(#gradient-3);"/>
  <ellipse transform="matrix(-0.707111, 0.707111, -0.707106, -0.707106, 281.664326, 561.057391)" cx="7.965" cy="15.026" rx="1.386" ry="1.386" style="fill: url(#gradient-4);"/>
  <ellipse transform="matrix(-0.707095, 0.707113, -0.707084, -0.707119, 302.756929, 548.364573)" cx="10.116" cy="19.085" rx="1.761" ry="1.761" style="fill: url(#gradient-5);"/>
  <ellipse transform="matrix(-0.7070940136909485, 0.7071430087089539, -0.7070879936218262, -0.7071380019187927, 219.31758117675778, 547.4863891601562)" cx="5.283" cy="9.967" rx="0.92" ry="0.92" style="fill: url(#gradient-6);"/>
  <ellipse transform="matrix(-0.7070760130882263, 0.7071340084075928, -0.7070810198783875, -0.7071390151977539, 113.64186096191403, 554.6351928710938)" cx="5.283" cy="9.967" rx="0.92" ry="0.92" style="fill: url(#gradient-7);"/>
</svg>