<svg id="Layer_1" data-name="Layer 1" xmlns="http://www.w3.org/2000/svg" viewBox="0 0 523 523"><defs><style>.cls-1{fill:#fff;}</style></defs><title>Artboard 4</title><path class="cls-1" d="M261.5,523A261.5,261.5,0,0,1,76.59,76.59,261.5,261.5,0,1,1,446.41,446.41,259.79,259.79,0,0,1,261.5,523Zm0-519A257.5,257.5,0,0,0,79.42,443.58,257.5,257.5,0,0,0,443.58,79.42,255.81,255.81,0,0,0,261.5,4Z"/><path class="cls-1" d="M31.26,251.66c.21,1.57,2,3.46,2.34,4.18,1.1,2.39-2.19,3.65-2.38,4.74-.18-1.05-3.48-2.21-2.38-4.67C29.16,255.15,30.91,253.4,31.26,251.66Z"/><path class="cls-1" d="M32,241c.13,1.58,1.82,3.54,2.13,4.28,1,2.44-2.39,3.54-2.61,4.63-.15-1.06-3.37-2.37-2.15-4.78C29.7,244.35,31.53,242.69,32,241Z"/><path class="cls-1" d="M33.17,230.3c.05,1.58,1.64,3.62,1.91,4.37.85,2.48-2.57,3.43-2.79,4.51-.15-1.07-3.3-2.53-2-4.88C30.73,233.59,32.64,232,33.17,230.3Z"/><path class="cls-1" d="M34.86,219.71c0,1.58,1.46,3.69,1.69,4.46a2.46,2.46,0,0,1-1.12,2.73c-.78.65-1.7,1.12-1.85,1.65-.08-1.08-3.25-2.69-1.76-5C32.26,222.88,34.25,221.39,34.86,219.71Z"/><path class="cls-1" d="M37,209.22c-.11,1.58,1.28,3.75,1.47,4.53.56,2.53-2.77,3.19-3.15,4.24,0-.54-.78-1.24-1.37-2.1a2.32,2.32,0,0,1-.18-2.95C34.28,212.25,36.34,210.86,37,209.22Z"/><path class="cls-1" d="M39.71,198.83c-.18,1.57,1.09,3.81,1.24,4.59.48,2.57-2.89,3.07-3.32,4.09.05-1.07-3-3-1.33-5.12C36.79,201.73,38.93,200.44,39.71,198.83Z"/><path class="cls-1" d="M42.85,188.58c-.26,1.56.9,3.85,1,4.64.41,2.6-3,2.93-3.49,3.93.09-1.07-2.81-3.11-1.11-5.18C39.8,191.34,42,190.15,42.85,188.58Z"/><path class="cls-1" d="M46.48,178.49c-.34,1.55.71,3.88.79,4.68.33,2.63-3.16,2.79-3.66,3.77.14-1.07-2.64-3.23-.86-5.23C43.28,181.09,45.55,180,46.48,178.49Z"/><path class="cls-1" d="M50.57,168.58c-.4,1.53.49,3.9.58,4.71.2,2.65-3.29,2.63-3.84,3.59.19-1.06-2.48-3.35-.61-5.26C47.23,171,49.58,170.06,50.57,168.58Z"/><path class="cls-1" d="M55.12,158.87c-.49,1.5.32,3.92.38,4.74.07,2.65-3.42,2.47-4,3.4.24-1-2.32-3.46-.35-5.28C51.69,161.16,54,160.29,55.12,158.87Z"/><path class="cls-1" d="M60.12,149.38A6,6,0,0,0,60,152c.11.9.32,1.74.31,2.14-.06,2.65-3.54,2.31-4.18,3.21.29-1-2.15-3.56-.1-5.28a15.67,15.67,0,0,1,1.83-1A7.42,7.42,0,0,0,60.12,149.38Z"/><path class="cls-1" d="M65.56,140.14a5.84,5.84,0,0,0-.26,2.62c.09.92.24,1.75.22,2.16-.18,2.64-3.65,2.13-4.33,3,.34-1-2-3.65.16-5.28a16.35,16.35,0,0,1,1.88-1A7.88,7.88,0,0,0,65.56,140.14Z"/><path class="cls-1" d="M71.42,131.16c-.73,1.4-.17,4-.26,4.77-.31,2.63-3.75,2-4.48,2.8.39-1-1.8-3.74.41-5.26C67.77,133,70.12,132.4,71.42,131.16Z"/><path class="cls-1" d="M77.69,122.46c-.79,1.36-.33,4-.47,4.76-.44,2.61-3.84,1.78-4.61,2.58.44-1-1.62-3.82.66-5.23C74,124.14,76.33,123.63,77.69,122.46Z"/><path class="cls-1" d="M84.36,114.06c-.85,1.32-.5,4-.68,4.74-.56,2.58-3.92,1.6-4.73,2.36.49-1-1.44-3.89.91-5.19C80.58,115.57,83,115.18,84.36,114.06Z"/><path class="cls-1" d="M91.41,106c-.89,1.3-.68,3.94-.89,4.71-.68,2.55-4,1.41-4.84,2.13.53-.93-1.26-3.95,1.15-5.14C87.57,107.32,90,107,91.41,106Z"/><path class="cls-1" d="M98.83,98.23c-.93,1.28-.86,3.91-1.1,4.67-.8,2.51-4.06,1.22-4.94,1.9.57-.9-1.07-4,1.39-5.08C94.93,99.39,97.36,99.25,98.83,98.23Z"/><path class="cls-1" d="M106.59,90.83c-1,1.26-1,3.87-1.31,4.62-.92,2.47-4.12,1-5,1.67.62-.88-.88-4,1.63-5C102.65,91.82,105.1,91.81,106.59,90.83Z"/><path class="cls-1" d="M114.7,83.81c-1,1.22-1.22,3.81-1.52,4.56-1,2.42-4.16.83-5.1,1.43.66-.85-.69-4.08,1.86-4.92C110.71,84.61,113.17,84.72,114.7,83.81Z"/><path class="cls-1" d="M123.13,77.18c-1.08,1.17-1.39,3.75-1.74,4.48-1.15,2.37-4.2.63-5.16,1.18.7-.81-.5-4.1,2.09-4.82C119.1,77.78,121.56,78,123.13,77.18Z"/><path class="cls-1" d="M131.85,70.94c-1.13,1.12-1.57,3.68-1.95,4.39-1.26,2.31-4.23.43-5.22.94.73-.78-.31-4.12,2.32-4.71C127.8,71.35,130.24,71.7,131.85,70.94Z"/><path class="cls-1" d="M140.86,65.11c-1.18,1.06-1.74,3.6-2.15,4.28-1.37,2.25-4.25.23-5.26.69.77-.74-.11-4.12,2.54-4.59C136.79,65.33,139.21,65.8,140.86,65.11Z"/><path class="cls-1" d="M150.12,59.71c-1.23,1-1.91,3.51-2.35,4.17-1.47,2.18-4.26,0-5.29.43.81-.7.08-4.12,2.75-4.46C146,59.74,148.44,60.32,150.12,59.71Z"/><path class="cls-1" d="M159.63,54.75c-1.28.94-2.07,3.41-2.55,4.05-1.57,2.1-4.26-.18-5.31.18.84-.66.27-4.11,3-4.32C155.55,54.58,157.92,55.27,159.63,54.75Z"/><path class="cls-1" d="M169.35,50.24c-1.32.88-2.23,3.3-2.74,3.92-1.67,2-4.25-.4-5.31-.06.85-.65.46-4.1,3.16-4.19C165.29,49.87,167.63,50.68,169.35,50.24Z"/><path class="cls-1" d="M179.28,46.18c-1.36.81-2.39,3.19-2.92,3.78-1.76,2-4.24-.63-5.29-.3.87-.65.65-4.08,3.35-4C175.23,45.62,177.53,46.54,179.28,46.18Z"/><path class="cls-1" d="M189.39,42.6c-1.4.74-2.54,3.06-3.1,3.63-1.86,1.85-4.2-.81-5.27-.53.9-.6.82-4.09,3.53-3.9C185.37,41.84,187.62,42.87,189.39,42.6Z"/><path class="cls-1" d="M199.65,39.49c-1.44.67-2.68,2.93-3.27,3.47a2.44,2.44,0,0,1-2.94.18c-.92-.41-1.75-1-2.29-.94.47-.27.72-1.29,1.18-2.21a2.38,2.38,0,0,1,2.52-1.53C195.67,38.54,197.88,39.67,199.65,39.49Z"/><path class="cls-1" d="M210,36.87c-1.47.6-2.82,2.79-3.43,3.3-2,1.62-4.09-1.13-5.19-1,1-.47,1.18-4.06,3.87-3.58C206.11,35.72,208.26,37,210,36.87Z"/><path class="cls-1" d="M220.56,34.73c-1.49.52-2.95,2.65-3.58,3.12a2.53,2.53,0,0,1-2.94-.05c-.88-.5-1.65-1.2-2.19-1.16.49-.22.84-1.21,1.39-2.08a2.33,2.33,0,0,1,2.64-1.34C216.67,33.39,218.77,34.74,220.56,34.73Z"/><path class="cls-1" d="M231.15,33.09c-1.52.45-3.07,2.49-3.73,2.94-2.17,1.49-4-1.44-5.07-1.43,1-.38,1.57-3.9,4.18-3.25C227.34,31.55,229.36,33,231.15,33.09Z"/><path class="cls-1" d="M241.81,31.93c-1.54.37-3.18,2.33-3.86,2.76-2.23,1.45-3.89-1.62-5-1.64,1-.34,1.75-3.78,4.32-3.06C238.07,30.18,240,31.77,241.81,31.93Z"/><path class="cls-1" d="M252.51,31.27c-1.55.29-3.29,2.16-4,2.61-2.29,1.33-3.81-1.81-4.91-1.89,1-.29,1.92-3.69,4.46-2.84a13.16,13.16,0,0,1,1.84,1A7.42,7.42,0,0,0,252.51,31.27Z"/><path class="cls-1" d="M263.23,31.09c-1.56.18-3.38,2.08-4.1,2.46-2.35,1.22-3.72-2-4.82-2.14,1-.24,2.09-3.59,4.59-2.61C259.67,29.09,261.48,30.69,263.23,31.09Z"/><path class="cls-1" d="M274,31.39c-1.57.15-3.48,2-4.21,2.31-2.4,1.1-3.63-2.19-4.72-2.38,1.06-.18,2.25-3.48,4.7-2.38C270.48,29.28,272.22,31,274,31.39Z"/><path class="cls-1" d="M284.65,32.2c-1.58.13-3.57,1.82-4.31,2.13-2.45,1-3.52-2.37-4.6-2.62,1.06-.13,2.41-3.36,4.81-2.14C281.28,29.93,282.93,31.76,284.65,32.2Z"/><path class="cls-1" d="M295.29,33.54c-1.59.05-3.65,1.64-4.4,1.91-2.49.85-3.4-2.55-4.47-2.85,1.07-.07,2.56-3.24,4.9-1.89C292,31.1,293.59,33,295.29,33.54Z"/><path class="cls-1" d="M305.86,35.36c-1.59,0-3.72,1.46-4.48,1.68-2.53.72-3.28-2.72-4.33-3.07,1.07,0,2.71-3.11,5-1.65C302.72,32.76,304.19,34.75,305.86,35.36Z"/><path class="cls-1" d="M316.33,37.67c-1.58-.11-3.78,1.27-4.55,1.46-2.56.6-3.14-2.89-4.18-3.27,1.07,0,2.85-3,5-1.41C313.32,34.91,314.69,37,316.33,37.67Z"/><path class="cls-1" d="M326.68,40.47c-1.58-.18-3.83,1.08-4.61,1.23-2.58.48-3-3.07-4-3.44,1.08,0,3-2.86,5.11-1.19C323.81,37.56,325.08,39.69,326.68,40.47Z"/><path class="cls-1" d="M336.89,43.74c-1.56-.26-3.87.89-4.66,1a2.44,2.44,0,0,1-2.52-1.53c-.52-.89-.85-1.85-1.35-2.08.54,0,1.32-.66,2.23-1.14a2.4,2.4,0,0,1,2.94.17C334.16,40.7,335.33,42.88,336.89,43.74Z"/><path class="cls-1" d="M346.94,47.49c-1.55-.34-3.91.7-4.7.77a2.47,2.47,0,0,1-2.45-1.64c-.48-.89-.76-1.89-1.25-2.14,1.07.14,3.28-2.65,5.22-.74C344.35,44.31,345.42,46.56,346.94,47.49Z"/><path class="cls-1" d="M356.8,51.7c-1.53-.41-3.93.51-4.73.55-2.6.05-2.57-3.36-3.53-3.93,1.05.21,3.41-2.52,5.25-.51C354.37,48.4,355.32,50.7,356.8,51.7Z"/><path class="cls-1" d="M366.45,56.37c-1.51-.49-4,.32-4.75.32a2.1,2.1,0,0,1-1.49-.59,3.38,3.38,0,0,1-.82-1.24c-.4-.93-.58-2-1-2.25.53.12,1.4-.45,2.37-.81a2.33,2.33,0,0,1,2.91.54C364.18,53,365,55.3,366.45,56.37Z"/><path class="cls-1" d="M375.87,61.49c-1.48-.56-4,.13-4.75.09-2.61-.16-2.27-3.55-3.16-4.22,1,.31,3.62-2.17,5.29,0C373.77,58,374.5,60.34,375.87,61.49Z"/><path class="cls-1" d="M385.05,67c-1.45-.63-4-.06-4.75-.14-2.61-.25-2.1-3.65-3-4.35,1,.36,3.7-2,5.29.2C383.11,63.41,383.74,65.82,385.05,67Z"/><path class="cls-1" d="M394,73c-1.42-.7-3.95-.25-4.73-.36-2.62-.35-1.93-3.74-2.76-4.48,1,.4,3.78-1.79,5.28.43C392.2,69.29,392.7,71.73,394,73Z"/><path class="cls-1" d="M402.58,79.38c-1.38-.77-3.93-.43-4.71-.59-2.62-.44-1.76-3.83-2.56-4.59,1,.44,3.85-1.6,5.26.68C401,75.57,401.39,78,402.58,79.38Z"/><path class="cls-1" d="M410.9,86.15c-1.35-.83-3.89-.63-4.68-.8-2.59-.57-1.58-3.91-2.34-4.71,1,.49,3.92-1.41,5.21.92C409.51,82.25,409.76,84.76,410.9,86.15Z"/><path class="cls-1" d="M418.9,93.29c-1.31-.88-3.84-.82-4.64-1-2.56-.69-1.39-4-2.11-4.82.93.53,4-1.23,5.16,1.17C417.7,89.33,417.83,91.86,418.9,93.29Z"/><path class="cls-1" d="M426.55,100.8c-1.26-1-3.81-1-4.6-1.21-2.52-.81-1.2-4-1.88-4.92.91.58,4-1,5.1,1.41C425.53,96.8,425.56,99.3,426.55,100.8Z"/><path class="cls-1" d="M433.86,108.65c-1.21-1-3.77-1.16-4.55-1.42-2.48-.93-1-4.1-1.65-5,.88.62,4.07-.85,5,1.65a14.19,14.19,0,0,1,.37,2.08A7.41,7.41,0,0,0,433.86,108.65Z"/><path class="cls-1" d="M440.79,116.83a6,6,0,0,0-2.38-1.11c-.89-.22-1.73-.35-2.11-.51-2.43-1-.81-4.15-1.41-5.08.85.66,4.1-.66,4.93,1.89a16.34,16.34,0,0,1,.28,2.09A7.52,7.52,0,0,0,440.79,116.83Z"/><path class="cls-1" d="M447.33,125.32a5.77,5.77,0,0,0-2.33-1.22c-.89-.26-1.72-.43-2.08-.6-2.38-1.16-.62-4.18-1.17-5.14.81.7,4.13-.47,4.84,2.12C446.83,121.25,446.59,123.69,447.33,125.32Z"/><path class="cls-1" d="M453.48,134.11c-1-1.2-3.62-1.64-4.33-2-2.32-1.27-.42-4.21-.92-5.2.78.74,4.14-.27,4.73,2.34C453.14,130,452.82,132.44,453.48,134.11Z"/><path class="cls-1" d="M459.21,143.18c-1-1.25-3.57-1.79-4.24-2.21-2.26-1.38-.22-4.23-.67-5.24.74.77,4.15-.08,4.61,2.56C459,139.11,458.64,141.47,459.21,143.18Z"/><path class="cls-1" d="M464.52,152.5c-.92-1.28-3.5-1.94-4.15-2.4-2.19-1.48,0-4.24-.42-5.27.7.81,4.14.11,4.48,2.78C464.52,148.43,464,150.78,464.52,152.5Z"/><path class="cls-1" d="M469.38,162.05c-.89-1.3-3.41-2.1-4-2.58-2.11-1.58.19-4.24-.17-5.29.66.84,4.13.31,4.33,3C469.58,158,468.91,160.33,469.38,162.05Z"/><path class="cls-1" d="M473.8,171.83c-.87-1.33-3.31-2.26-3.93-2.76-2-1.68.39-4.22.09-5.29.62.87,4.11.5,4.18,3.19C474.18,167.78,473.37,170.1,473.8,171.83Z"/><path class="cls-1" d="M477.73,181.8c-.81-1.37-3.19-2.41-3.79-2.95-1.94-1.78.6-4.2.35-5.29.58.9,4.07.7,4,3.39C478.31,177.78,477.38,180.06,477.73,181.8Z"/><path class="cls-1" d="M481.19,192c-.74-1.4-3.07-2.56-3.64-3.13-1.85-1.87.8-4.17.6-5.27.53.93,4,.89,3.84,3.58C482,188,480.93,190.2,481.19,192Z"/><path class="cls-1" d="M484.17,202.26c-.67-1.44-2.94-2.7-3.48-3.3-1.76-2,1-4.14.86-5.24.49,1,4,1.08,3.66,3.76C485.14,198.3,484,200.49,484.17,202.26Z"/><path class="cls-1" d="M486.67,212.69c-.6-1.47-2.8-2.84-3.31-3.46-1.66-2,1.21-4.09,1.12-5.19.44,1,3.92,1.27,3.47,3.93C487.83,208.77,486.58,210.91,486.67,212.69Z"/><path class="cls-1" d="M488.67,223.22c-.52-1.5-2.65-3-3.13-3.61-1.56-2.11,1.44-4,1.35-5.13.45,1,3.86,1.45,3.29,4.08C490,219.37,488.67,221.44,488.67,223.22Z"/><path class="cls-1" d="M490.18,233.84c-.45-1.52-2.5-3.09-2.94-3.76-1.44-2.19,1.62-4,1.56-5.06.41,1,3.85,1.62,3.12,4.23C491.73,230,490.27,232.06,490.18,233.84Z"/><path class="cls-1" d="M491.2,244.51c-.37-1.54-2.34-3.21-2.75-3.89-1.3-2.25,1.75-3.87,1.77-5,.34,1,3.83,1.79,3,4.36C492.94,240.79,491.38,242.73,491.2,244.51Z"/><path class="cls-1" d="M491.73,255.22c-.29-1.56-2.17-3.31-2.55-4a2.53,2.53,0,0,1,.49-2.9c.63-.8,1.44-1.45,1.48-2,.14.52,1.07,1,1.85,1.69a2.33,2.33,0,0,1,.93,2.81C493.65,251.59,492,253.45,491.73,255.22Z"/><path class="cls-1" d="M491.78,265.94c-.21-1.57-2-3.41-2.34-4.12-1.18-2.36,2-3.7,2.16-4.8.23,1,3.6,2.13,2.6,4.62C493.88,262.4,492.13,264.19,491.78,265.94Z"/><path class="cls-1" d="M491.34,276.66c-.15-1.58-1.79-3.49-2.17-4.23-1.1-2.42,2.19-3.6,2.38-4.69.18,1.06,3.48,2.29,2.38,4.73C493.64,273.22,491.78,274.92,491.34,276.66Z"/><path class="cls-1" d="M490.41,287.34a5.94,5.94,0,0,0-.88-2.47c-.48-.79-1-1.48-1.13-1.85-1-2.46,2.37-3.5,2.61-4.58.13,1.07,3.36,2.45,2.13,4.83a16.31,16.31,0,0,1-1.28,1.67A7.74,7.74,0,0,0,490.41,287.34Z"/><path class="cls-1" d="M489,298c.06-1.57-1.58-3.66-1.83-4.42-.85-2.5,2.54-3.38,2.84-4.45.07,1.07,3.23,2.6,1.89,4.93C491.47,294.74,489.65,296.29,489,298Z"/><path class="cls-1" d="M487.07,308.52c.09-1.58-1.44-3.74-1.65-4.51-.72-2.54,2.71-3.25,3.07-4.31,0,1.07,3.1,2.75,1.64,5C489.69,305.41,487.75,306.86,487.07,308.52Z"/><path class="cls-1" d="M484.66,319c.11-1.59-1.26-3.8-1.45-4.58-.59-2.57,2.87-3.12,3.28-4.16,0,1.07,3,2.89,1.39,5.07C487.41,316,485.36,317.33,484.66,319Z"/><path class="cls-1" d="M481.73,329.29c.19-1.58-1.08-3.85-1.22-4.64-.46-2.59,3-3,3.48-4-.09,1.07,2.81,3,1.14,5.13C484.63,326.44,482.51,327.69,481.73,329.29Z"/><path class="cls-1" d="M478.33,339.46c.26-1.57-.89-3.9-1-4.69-.34-2.61,3.17-2.83,3.68-3.82-.14,1.06,2.66,3.15.88,5.17C481.37,336.75,479.19,337.9,478.33,339.46Z"/><path class="cls-1" d="M474.46,349.46c.34-1.55-.69-3.93-.76-4.73-.21-2.62,3.31-2.68,3.86-3.64-.19,1.05,2.51,3.27.63,5.21C477.63,346.9,475.39,347.94,474.46,349.46Z"/><path class="cls-1" d="M470.12,359.27c.42-1.53-.5-4-.53-4.76-.08-2.62,3.44-2.51,4-3.45-.24,1,2.35,3.38.38,5.23C473.42,356.86,471.13,357.8,470.12,359.27Z"/><path class="cls-1" d="M465.34,368.87c.49-1.51-.31-4-.3-4.77,0-2.63,3.58-2.34,4.18-3.27-.25,1,2.2,3.49.15,5.24C468.75,366.62,466.41,367.44,465.34,368.87Z"/><path class="cls-1" d="M460.11,378.23c.56-1.48-.12-4-.07-4.78.16-2.62,3.7-2.16,4.32-3.07-.27,1,2,3.6-.09,5.25C463.62,376.14,461.25,376.86,460.11,378.23Z"/><path class="cls-1" d="M454.45,387.34c.63-1.45.07-4,.15-4.77.3-2.6,3.79-2,4.45-2.87-.33,1,1.9,3.71-.32,5.25C458.07,385.42,455.66,386,454.45,387.34Z"/><path class="cls-1" d="M448.38,396.17c.7-1.42.26-4,.38-4.76a2.44,2.44,0,0,1,2.19-2c1-.24,2-.28,2.38-.69-.2.5.24,1.45.45,2.47a2.4,2.4,0,0,1-1,2.77C452.08,394.43,449.65,394.92,448.38,396.17Z"/><path class="cls-1" d="M441.9,404.72c.77-1.39.45-3.95.61-4.73a2.46,2.46,0,0,1,2.27-1.88c1-.21,2-.19,2.41-.58-.44,1,1.59,3.9-.79,5.21C445.68,403.15,443.23,403.53,441.9,404.72Z"/><path class="cls-1" d="M435,413c.83-1.35.63-3.92.83-4.69.69-2.51,4-1.49,4.78-2.25-.5,1,1.42,4-1,5.17C438.89,411.57,436.42,411.83,435,413Z"/><path class="cls-1" d="M427.79,420.86c.9-1.31.82-3.88,1-4.64.81-2.47,4-1.32,4.87-2-.55.92,1.25,4.05-1.25,5.12C431.72,419.66,429.23,419.8,427.79,420.86Z"/><path class="cls-1" d="M420.2,428.43c1-1.26,1-3.84,1.27-4.59a2.52,2.52,0,0,1,2.49-1.57c1-.06,2,.1,2.47-.24-.29.46,0,1.47,0,2.5a2.33,2.33,0,0,1-1.47,2.57C424.17,427.41,421.68,427.44,420.2,428.43Z"/><path class="cls-1" d="M412.26,435.64c1-1.21,1.18-3.78,1.48-4.52a2.51,2.51,0,0,1,2.55-1.46c1,0,2,.19,2.48-.12-.64.86.86,4.14-1.71,5C416.28,434.81,413.79,434.72,412.26,435.64Z"/><path class="cls-1" d="M404,442.47c1.07-1.16,1.36-3.72,1.69-4.44,1.12-2.37,4.14-.78,5.09-1.36-.67.83.66,4.16-1.93,4.92C408.06,441.84,405.57,441.63,404,442.47Z"/><path class="cls-1" d="M395.42,448.91c1.13-1.11,1.53-3.65,1.9-4.35,1.21-2.34,4.17-.59,5.14-1.13-.71.81.45,4.17-2.15,4.84C399.51,448.47,397,448.15,395.42,448.91Z"/><path class="cls-1" d="M386.56,455c1.18-1.06,1.7-3.57,2.1-4.25,1.3-2.3,4.19-.4,5.18-.9-.74.78.24,4.17-2.37,4.74C390.67,454.71,388.22,454.27,386.56,455Z"/><path class="cls-1" d="M377.43,460.58c1.23-1,1.87-3.48,2.3-4.15,1.39-2.26,4.21-.2,5.22-.66-.78.74,0,4.17-2.59,4.62C381.56,460.54,379.11,460,377.43,460.58Z"/><path class="cls-1" d="M368.05,465.77c1.27-.95,2-3.36,2.49-4,1.49-2.19,4.21,0,5.24-.41-.81.71-.15,4.16-2.81,4.49C372.19,465.94,369.76,465.23,368.05,465.77Z"/><path class="cls-1" d="M358.44,470.52c1.31-.88,2.2-3.26,2.67-3.94,1.6-2.12,4.21.2,5.26-.16-.84.67-.35,4.15-3,4.35C362.55,470.87,360.17,470.07,358.44,470.52Z"/><path class="cls-1" d="M348.61,474.81a6,6,0,0,0,1.75-2c.48-.77.83-1.56,1.09-1.86,1.7-2,4.2.4,5.27.1-.87.62-.54,4.12-3.22,4.19a14.6,14.6,0,0,1-2.08-.33A7.42,7.42,0,0,0,348.61,474.81Z"/><path class="cls-1" d="M338.6,478.64a5.84,5.84,0,0,0,1.84-1.88c.51-.77.9-1.52,1.18-1.82,1.79-1.95,4.18.61,5.26.35-.9.58-.74,4.09-3.42,4a16.34,16.34,0,0,1-2.06-.42A7.89,7.89,0,0,0,338.6,478.64Z"/><path class="cls-1" d="M328.41,482c1.44-.63,2.61-3,3.18-3.57,1.88-1.86,4.15.81,5.24.61-.93.53-.93,4-3.6,3.85C332.41,482.84,330.21,481.86,328.41,482Z"/><path class="cls-1" d="M318.08,484.89c1.47-.58,2.74-2.92,3.34-3.44,2-1.76,4.11,1,5.21.87-1,.49-1.12,4-3.78,3.67C322,485.88,319.88,484.8,318.08,484.89Z"/><path class="cls-1" d="M307.63,487.28c1.48-.57,2.87-2.8,3.49-3.3,2.05-1.66,4.06,1.22,5.17,1.13-1,.44-1.31,3.93-4,3.47C311.52,488.46,309.41,487.22,307.63,487.28Z"/><path class="cls-1" d="M297.07,489.17c1.5-.52,3-2.66,3.64-3.13,2.13-1.55,4,1.42,5.11,1.38-1,.39-1.49,3.86-4.12,3.27C300.91,490.53,298.85,489.17,297.07,489.17Z"/><path class="cls-1" d="M286.44,490.55c1.52-.45,3.12-2.5,3.78-2.95,2.2-1.44,3.93,1.62,5,1.64-1,.34-1.67,3.77-4.27,3.06C290.2,492.1,288.21,490.64,286.44,490.55Z"/><path class="cls-1" d="M275.75,491.43c1.54-.37,3.23-2.34,3.92-2.75,2.26-1.33,3.86,1.81,5,1.89-1,.29-1.84,3.68-4.41,2.84C279.44,493.17,277.52,491.61,275.75,491.43Z"/><path class="cls-1" d="M265,491.83c1.56-.29,3.34-2.17,4-2.55,2.32-1.23,3.77,2,4.87,2.11-1,.3-2,3.6-4.53,2.64C268.64,493.75,266.8,492.1,265,491.83Z"/><path class="cls-1" d="M254.31,491.74c1.57-.21,3.43-2,4.15-2.34a2.44,2.44,0,0,1,2.86.71c.76.68,1.36,1.51,1.91,1.58-.53.12-1.07,1-1.79,1.76a2.39,2.39,0,0,1-2.86.71C257.83,493.84,256.06,492.09,254.31,491.74Z"/><path class="cls-1" d="M243.6,491.16c1.58-.13,3.52-1.83,4.25-2.13,2.42-.94,3.57,2.26,4.66,2.47-.53.09-1.11,1-1.87,1.67a2.32,2.32,0,0,1-2.89.62C247,493.44,245.33,491.61,243.6,491.16Z"/><path class="cls-1" d="M232.93,490.1c1.58-.05,3.6-1.65,4.35-1.91,2.47-.88,3.47,2.39,4.55,2.66-1.07.11-2.5,3.39-4.86,2.1C236.24,492.54,234.64,490.63,232.93,490.1Z"/><path class="cls-1" d="M222.33,488.54c1.58,0,3.67-1.46,4.43-1.69,2.52-.85,3.36,2.54,4.42,2.84-1.07.07-2.64,3.23-5,1.88C225.51,491.16,224,489.15,222.33,488.54Z"/><path class="cls-1" d="M211.8,486.5c1.58.09,3.72-1.25,4.51-1.51,2.55-.72,3.23,2.71,4.28,3.06-1.07,0-2.79,3.09-5,1.64C214.86,489.28,213.45,487.19,211.8,486.5Z"/><path class="cls-1" d="M201.38,484a6,6,0,0,0,2.58-.5c.85-.33,1.61-.73,2-.82,2.58-.59,3.1,2.87,4.13,3.27-1.07,0-2.93,3-5.1,1.38a15.85,15.85,0,0,1-1.46-1.52A7.43,7.43,0,0,0,201.38,484Z"/><path class="cls-1" d="M191.09,480.94c1.55.29,3.85-1,4.64-1.12,2.61-.46,3,3,4,3.48-1.07-.09-3.06,2.8-5.16,1.13C193.9,483.92,192.65,481.83,191.09,480.94Z"/><path class="cls-1" d="M181,477.44c1.53.37,3.9-.83,4.7-.92,2.62-.33,2.81,3.17,3.8,3.67-1.06-.14-3.19,2.65-5.2.87C183.63,480.51,182.47,478.41,181,477.44Z"/><path class="cls-1" d="M171,473.47c1.52.42,3.95-.66,4.74-.72,2.63-.2,2.65,3.3,3.62,3.86-1.05-.19-3.31,2.49-5.23.62C173.53,476.65,172.48,474.47,171,473.47Z"/><path class="cls-1" d="M161.23,469c1.52.45,4-.48,4.77-.51,2.64-.08,2.49,3.43,3.43,4-1-.24-3.42,2.33-5.25.36C163.61,472.32,162.68,470.07,161.23,469Z"/><path class="cls-1" d="M151.68,464.14c1.51.49,4-.3,4.8-.29,2.64.05,2.33,3.55,3.23,4.19-1-.29-3.52,2.17-5.26.11C153.91,467.54,153.1,465.22,151.68,464.14Z"/><path class="cls-1" d="M142.38,458.8c1.49.56,4-.11,4.8-.06,2.63.18,2.16,3.66,3,4.35-1-.34-3.62,2-5.25-.14C144.45,462.3,143.75,459.94,142.38,458.8Z"/><path class="cls-1" d="M133.34,453c1.46.63,4,.08,4.8.17,2.61.3,2,3.76,2.82,4.49-1-.39-3.71,1.82-5.24-.39C135.24,456.63,134.65,454.24,133.34,453Z"/><path class="cls-1" d="M124.58,446.85c1.42.7,4,.27,4.78.4,2.6.43,1.8,3.85,2.6,4.62-1-.44-3.78,1.65-5.21-.64C126.3,450.54,125.83,448.12,124.58,446.85Z"/><path class="cls-1" d="M116.11,440.27c1.39.77,4,.46,4.75.62,2.57.55,1.61,3.94,2.38,4.74-1-.48-3.85,1.47-5.17-.89C117.66,444,117.3,441.6,116.11,440.27Z"/><path class="cls-1" d="M108,433.3c1.35.84,3.94.65,4.71.85,2.54.67,1.43,4,2.15,4.85-.93-.53-3.92,1.28-5.12-1.13C109.32,437.15,109.08,434.69,108,433.3Z"/><path class="cls-1" d="M100.13,426c1.31.9,3.9.83,4.67,1.07,2.51.79,1.23,4.08,1.92,5-.91-.57-4,1.1-5.06-1.37C101.31,429.88,101.19,427.41,100.13,426Z"/><path class="cls-1" d="M92.65,418.28c1.26,1,3.85,1,4.61,1.29,2.47.9,1,4.15,1.7,5-.9-.59-4,.92-5-1.59C93.65,422.24,93.64,419.77,92.65,418.28Z"/><path class="cls-1" d="M85.54,410.26c1.22,1,3.8,1.2,4.54,1.5,2.43,1,.82,4.21,1.47,5.09-.9-.61-4.06.74-4.92-1.82C86.35,414.26,86.45,411.79,85.54,410.26Z"/><path class="cls-1" d="M78.81,401.91c1.17,1.08,3.74,1.38,4.46,1.71,2.37,1.13.63,4.24,1.24,5.15-.87-.65-4.11.56-4.84-2C79.43,406,79.65,403.49,78.81,401.91Z"/><path class="cls-1" d="M72.46,393.27c1.11,1.13,3.66,1.55,4.37,1.92,2.3,1.25.44,4.25,1,5.2-.83-.69-4.16.39-4.75-2.25C72.89,397.34,73.23,394.88,72.46,393.27Z"/><path class="cls-1" d="M66.53,384.33c1.06,1.18,3.58,1.72,4.27,2.13a2.44,2.44,0,0,1,1,2.77c-.14,1-.49,2-.24,2.47-.39-.37-1.44-.32-2.46-.5a2.39,2.39,0,0,1-2.19-2C66.77,388.42,67.22,386,66.53,384.33Z"/><path class="cls-1" d="M61,375.14c1,1.23,3.49,1.89,4.16,2.33a2.47,2.47,0,0,1,.9,2.81c-.18,1-.58,2-.36,2.45-.75-.78-4.21,0-4.54-2.67C61.06,379.23,61.63,376.82,61,375.14Z"/><path class="cls-1" d="M55.94,365.69c.94,1.28,3.4,2.05,4,2.52,2.07,1.58-.09,4.24.3,5.27-.69-.82-4.23-.16-4.42-2.88C55.79,369.79,56.47,367.4,55.94,365.69Z"/><path class="cls-1" d="M51.31,356c.87,1.32,3.29,2.21,3.91,2.71,2,1.68-.26,4.22.07,5.28-.34-.43-1.37-.52-2.36-.84a3.52,3.52,0,0,1-1.33-.72,2.15,2.15,0,0,1-.6-1.51C51,360.11,51.75,357.75,51.31,356Z"/><path class="cls-1" d="M47.14,346.15c.81,1.36,3.18,2.37,3.77,2.9a2.51,2.51,0,0,1,.54,2.89c-.32,1-.86,1.85-.71,2.38-.6-.89-4.19-.56-4.16-3.27C46.58,350.22,47.5,347.9,47.14,346.15Z"/><path class="cls-1" d="M43.43,336.08c.74,1.4,3.05,2.51,3.62,3.07,1.88,1.83-.63,4.17-.4,5.25-.57-.91-4.13-.76-4-3.45C42.68,340.13,43.7,337.85,43.43,336.08Z"/><path class="cls-1" d="M40.2,325.86c.67,1.43,2.92,2.66,3.46,3.24,1.84,1.9-.82,4.13-.63,5.22-.54-.93-4.06-1-3.86-3.63C39.25,329.87,40.38,327.64,40.2,325.86Z"/><path class="cls-1" d="M37.44,315.5c.61,1.46,2.76,2.8,3.32,3.4,1.76,2-1,4.09-.88,5.19-.49-1-4-1.16-3.68-3.81C36.27,319.47,37.55,317.28,37.44,315.5Z"/><path class="cls-1" d="M35.18,305c.52,1.49,2.63,2.93,3.18,3.54,1.66,2.06-1.22,4-1.13,5.14-.44-1-3.94-1.35-3.48-4C33.83,308.92,35.17,306.81,35.18,305Z"/><path class="cls-1" d="M33.4,294.44a5.78,5.78,0,0,0,1.48,2.17c.66.65,1.31,1.19,1.55,1.51,1.56,2.14-1.42,4-1.39,5.09-.39-1-3.86-1.53-3.27-4.15C31.92,298.27,33.28,296.24,33.4,294.44Z"/><path class="cls-1" d="M32.11,283.8c.33,1.54,2.47,3.15,2.89,3.82,1.45,2.21-1.62,3.91-1.64,5-.34-1-3.78-1.71-3.06-4.3a16.42,16.42,0,0,1,.92-1.9A8.76,8.76,0,0,0,32.11,283.8Z"/><path class="cls-1" d="M31.31,273.1c.35,1.55,2.33,3.26,2.74,3.95,1.33,2.28-1.81,3.83-1.89,4.94-.29-1-3.69-1.88-2.84-4.43C29.57,276.77,31.11,274.87,31.31,273.1Z"/><path class="cls-1" d="M31,262.38c.29,1.56,2.17,3.36,2.55,4.07,1.21,2.34-2,3.75-2.14,4.85-.23-1-3.59-2.05-2.61-4.56C29.12,266,30.77,264.14,31,262.38Z"/><rect class="cls-1" x="113.28" y="343.27" width="296.43" height="2"/><path class="cls-1" d="M200,109.51a19.67,19.67,0,0,0-2.57-1.16c-.91-.34-1.58-.61-2-.8a2.86,2.86,0,0,1-1-.81,2.1,2.1,0,0,1-.43-1.36,2.56,2.56,0,0,1,.88-2.06,3.53,3.53,0,0,1,2.35-.75,5.68,5.68,0,0,1,2.83.77l.26.13a.72.72,0,0,0,.32.09c.18,0,.36-.18.61-.61a2,2,0,0,0,.34-.9c0-.34-.26-.65-.77-.92a6.84,6.84,0,0,0-1.74-.58,9.11,9.11,0,0,0-1.81-.21,7.26,7.26,0,0,0-3.08.62,4.89,4.89,0,0,0-2.08,1.75,4.6,4.6,0,0,0-.74,2.56,4.83,4.83,0,0,0,.64,2.63,4.42,4.42,0,0,0,1.55,1.51,21.11,21.11,0,0,0,2.41,1.1c.93.36,1.65.67,2.13.92a3.79,3.79,0,0,1,1.22,1,2.34,2.34,0,0,1,.49,1.52,2.73,2.73,0,0,1-.91,2.13,3.45,3.45,0,0,1-2.37.81,6.71,6.71,0,0,1-2.12-.29,12.45,12.45,0,0,1-1.8-.78c-.41-.23-.5-.25-.56-.25s-.4.19-.66.6a1.87,1.87,0,0,0-.37.93c0,.29.26.6.8.93a7.31,7.31,0,0,0,2,.78,11,11,0,0,0,2.7.32,6.36,6.36,0,0,0,4.29-1.38,4.77,4.77,0,0,0,1.6-3.79,4.79,4.79,0,0,0-2.43-4.41Z"/><path class="cls-1" d="M216.73,100.48H204.54a.57.57,0,0,0-.49.23,1.15,1.15,0,0,0-.15.67v.42a1.15,1.15,0,0,0,.15.67.56.56,0,0,0,.49.24h4.87v15.58c0,.46.39.7,1.17.7h.21c.77,0,1.17-.23,1.17-.7V102.71h4.79a.56.56,0,0,0,.51-.24,1.25,1.25,0,0,0,.14-.67v-.42a1.25,1.25,0,0,0-.14-.67A.56.56,0,0,0,216.73,100.48Z"/><path class="cls-1" d="M233.4,100.43h-.21c-.77,0-1.17.23-1.17.7v11.93a3.34,3.34,0,0,1-.6,1.94,4.07,4.07,0,0,1-1.67,1.36,5.7,5.7,0,0,1-2.42.5,5.82,5.82,0,0,1-2.42-.48,4,4,0,0,1-1.66-1.35,3.38,3.38,0,0,1-.6-2V101.13c0-.46-.39-.7-1.17-.7h-.21c-.77,0-1.17.23-1.17.7V113a5.64,5.64,0,0,0,1.88,4.5,9.69,9.69,0,0,0,10.68,0,5.62,5.62,0,0,0,1.89-4.5V101.13C234.56,100.66,234.17,100.43,233.4,100.43Z"/><path class="cls-1" d="M240.21,118.93h5.25a8.12,8.12,0,0,0,5.92-2.19c1.48-1.46,2.23-3.82,2.23-7s-.75-5.55-2.23-7a8.1,8.1,0,0,0-5.92-2.21h-5.25a.78.78,0,0,0-.9.91V118a.78.78,0,0,0,.9.91Zm1.63-2.23v-14h3.44a5.43,5.43,0,0,1,4.15,1.69c1,1.12,1.58,2.91,1.58,5.31s-.53,4.21-1.58,5.32a5.45,5.45,0,0,1-4.15,1.68Z"/><path class="cls-1" d="M268.2,118.69a1.25,1.25,0,0,0,.14-.67v-.42a1.25,1.25,0,0,0-.14-.67.56.56,0,0,0-.51-.24h-7.47v-6.09h6.66a.56.56,0,0,0,.51-.24,1.25,1.25,0,0,0,.14-.67v-.42a1.25,1.25,0,0,0-.14-.67.56.56,0,0,0-.51-.24h-6.66v-5.68h7.44a.56.56,0,0,0,.51-.24,1.25,1.25,0,0,0,.14-.67v-.42a1.25,1.25,0,0,0-.14-.67.56.56,0,0,0-.51-.24h-9.07a.78.78,0,0,0-.9.91V118a.78.78,0,0,0,.9.91h9.1A.56.56,0,0,0,268.2,118.69Z"/><path class="cls-1" d="M285.11,119c.77,0,1.16-.23,1.16-.7V101.13c0-.46-.39-.7-1.16-.7h-.18c-.77,0-1.17.23-1.17.7v13.41l-.55-1L274.92,101a1.27,1.27,0,0,0-.49-.43,1.8,1.8,0,0,0-.7-.11h-.55c-.77,0-1.17.23-1.17.7v17.16c0,.46.39.7,1.17.7h.18c.77,0,1.17-.23,1.17-.7V104.72l.47.89,8.58,12.95a1.12,1.12,0,0,0,1,.42Z"/><path class="cls-1" d="M289.85,102.71h4.87v15.58c0,.46.39.7,1.16.7h.21c.77,0,1.16-.23,1.16-.7V102.71H302a.56.56,0,0,0,.51-.24,1.25,1.25,0,0,0,.14-.67v-.42a1.25,1.25,0,0,0-.14-.67.56.56,0,0,0-.51-.24H289.85a.57.57,0,0,0-.49.24,1.16,1.16,0,0,0-.15.67v.42a1.16,1.16,0,0,0,.15.67A.57.57,0,0,0,289.85,102.71Z"/><path class="cls-1" d="M313.2,109.51a19.65,19.65,0,0,0-2.56-1.16c-.91-.34-1.58-.61-2-.8a2.86,2.86,0,0,1-1-.81,2.1,2.1,0,0,1-.43-1.36,2.56,2.56,0,0,1,.88-2.06,3.53,3.53,0,0,1,2.35-.75,5.68,5.68,0,0,1,2.83.77l.26.13a.73.73,0,0,0,.32.09c.17,0,.37-.19.62-.61a1.94,1.94,0,0,0,.34-.9c0-.34-.26-.65-.77-.92a6.85,6.85,0,0,0-1.74-.58,9.13,9.13,0,0,0-1.81-.21,7.26,7.26,0,0,0-3.08.62,4.89,4.89,0,0,0-2.08,1.75,4.59,4.59,0,0,0-.74,2.56,4.83,4.83,0,0,0,.64,2.63,4.42,4.42,0,0,0,1.55,1.51,21,21,0,0,0,2.41,1.1c.93.36,1.64.67,2.13.92a3.79,3.79,0,0,1,1.22,1,2.34,2.34,0,0,1,.49,1.52,2.73,2.73,0,0,1-.91,2.13,3.45,3.45,0,0,1-2.37.81,6.71,6.71,0,0,1-2.12-.29,12.46,12.46,0,0,1-1.8-.78c-.41-.23-.5-.25-.56-.25s-.4.19-.66.6a1.87,1.87,0,0,0-.37.93c0,.29.26.6.8.93a7.31,7.31,0,0,0,2,.78,11,11,0,0,0,2.69.32A6.36,6.36,0,0,0,314,117.7a4.77,4.77,0,0,0,1.6-3.79,4.79,4.79,0,0,0-2.43-4.41Z"/><path class="cls-1" d="M317.72,105.05a1.54,1.54,0,0,0,.57.1,1.82,1.82,0,0,0,1.2-.7,5.79,5.79,0,0,0,1.13-1.86,7.08,7.08,0,0,0,.48-2.66.75.75,0,0,0-.33-.63,1.43,1.43,0,0,0-.84-.22h-.23a1.29,1.29,0,0,0-.86.25.88.88,0,0,0-.3.71,8.72,8.72,0,0,1-.87,3.92,1.7,1.7,0,0,0-.25.68A.43.43,0,0,0,317.72,105.05Z"/><path class="cls-1" d="M164.58,131.63h-.18c-.77,0-1.17.23-1.17.7v13.41l-.55-1-8.3-12.54a1.27,1.27,0,0,0-.49-.43,1.8,1.8,0,0,0-.7-.11h-.55c-.77,0-1.17.23-1.17.7v17.16c0,.46.39.7,1.17.7h.18c.77,0,1.17-.23,1.17-.7V135.92l.47.89L163,149.76a1.12,1.12,0,0,0,1,.42h.52c.77,0,1.16-.23,1.16-.7V132.33C165.74,131.86,165.35,131.63,164.58,131.63Z"/><path class="cls-1" d="M177.76,131.52a7.66,7.66,0,0,0-6.06,2.37c-1.37,1.57-2.07,3.91-2.07,7s.7,5.41,2.08,7a8.8,8.8,0,0,0,12.12,0c1.38-1.6,2.08-4,2.08-7s-.7-5.39-2.09-7A7.71,7.71,0,0,0,177.76,131.52Zm0,16.54a4.88,4.88,0,0,1-4.1-1.82,8.74,8.74,0,0,1-1.42-5.38,8.51,8.51,0,0,1,1.42-5.32,5.62,5.62,0,0,1,8.22,0,8.46,8.46,0,0,1,1.43,5.32,8.68,8.68,0,0,1-1.43,5.38A4.92,4.92,0,0,1,177.76,148.06Z"/><path class="cls-1" d="M199.58,140.74c-.37-.18-.61-.29-.77-.35a4,4,0,0,0,1.8-1.44,4.4,4.4,0,0,0-.66-6h0a6.74,6.74,0,0,0-4.41-1.28h-4.65a.78.78,0,0,0-.9.91v16.64a.78.78,0,0,0,.9.91h4.47c4.59,0,6.91-1.8,6.91-5.35a3.84,3.84,0,0,0-.84-2.56A5.76,5.76,0,0,0,199.58,140.74Zm-7.05-1.21v-5.63h2.79a4.49,4.49,0,0,1,2.73.66,2.45,2.45,0,0,1,.84,2,2.65,2.65,0,0,1-1,2.06,3.67,3.67,0,0,1-2.49.85Zm3.67,8.37h-3.67v-6.15h3.23a4.75,4.75,0,0,1,2.93.77,2.54,2.54,0,0,1,1,2.15,3.14,3.14,0,0,1-.9,2.37A3.58,3.58,0,0,1,196.2,147.91Zm2.44-7.44h0Z"/><path class="cls-1" d="M215.72,147.91h-7.47v-6.09h6.66a.56.56,0,0,0,.51-.24,1.25,1.25,0,0,0,.14-.67v-.42a1.25,1.25,0,0,0-.14-.67.56.56,0,0,0-.51-.24h-6.66v-5.68h7.44a.56.56,0,0,0,.51-.24,1.25,1.25,0,0,0,.14-.67v-.42a1.25,1.25,0,0,0-.14-.67.56.56,0,0,0-.51-.24h-9.07a.78.78,0,0,0-.9.91v16.64a.78.78,0,0,0,.9.91h9.1a.56.56,0,0,0,.51-.24,1.25,1.25,0,0,0,.14-.67v-.42a1.25,1.25,0,0,0-.14-.67A.56.56,0,0,0,215.72,147.91Z"/><path class="cls-1" d="M229.79,147.91h-7V132.33c0-.46-.39-.7-1.17-.7h-.21c-.77,0-1.16.23-1.16.7v16.9a.78.78,0,0,0,.9.91h8.66a.56.56,0,0,0,.51-.24,1.25,1.25,0,0,0,.14-.67v-.42a1.25,1.25,0,0,0-.14-.67A.56.56,0,0,0,229.79,147.91Z"/><path class="cls-1" d="M252.59,131.63h-.18c-.77,0-1.17.23-1.17.7v13.41l-.55-1-8.3-12.54a1.27,1.27,0,0,0-.49-.43,1.8,1.8,0,0,0-.7-.11h-.55c-.77,0-1.17.23-1.17.7v17.16c0,.46.39.7,1.17.7h.18c.77,0,1.17-.23,1.17-.7V135.92l.47.89,8.58,12.95a1.12,1.12,0,0,0,1,.42h.52c.77,0,1.16-.23,1.16-.7V132.33C253.75,131.86,253.36,131.63,252.59,131.63Z"/><path class="cls-1" d="M260.05,131.63h-.21c-.77,0-1.16.23-1.16.7v17.16c0,.46.39.7,1.16.7h.21c.77,0,1.17-.23,1.17-.7V132.33C261.22,131.86,260.82,131.63,260.05,131.63Z"/><path class="cls-1" d="M278.46,140.5h-4.55a.57.57,0,0,0-.49.23,1.15,1.15,0,0,0-.15.67v.42a1.15,1.15,0,0,0,.15.67.57.57,0,0,0,.49.23h2.92v5a9.11,9.11,0,0,1-1.36.22c-.6.06-1.23.09-1.87.09-2.09,0-3.58-.65-4.42-1.93a9.63,9.63,0,0,1-1.28-5.3,8.63,8.63,0,0,1,1.38-5.31c.91-1.18,2.46-1.77,4.61-1.77a6.81,6.81,0,0,1,1.9.24,6.93,6.93,0,0,1,1.41.56c.61.34.68.34.72.34.21,0,.42-.2.67-.63a2.14,2.14,0,0,0,.34-1c0-.28-.26-.55-.78-.84a7.18,7.18,0,0,0-1.91-.65h0a11.56,11.56,0,0,0-2.4-.25c-5.67,0-8.55,3.21-8.55,9.54,0,3.07.7,5.4,2.09,6.92a7.82,7.82,0,0,0,6.07,2.3,17,17,0,0,0,4.21-.43c1.14-.3,1.72-.83,1.72-1.56V141.4a.78.78,0,0,0-.91-.9Z"/><path class="cls-1" d="M297.18,131.63H297c-.77,0-1.16.23-1.16.7v7.23h-9.16v-7.23c0-.46-.39-.7-1.17-.7h-.21c-.77,0-1.16.23-1.16.7v17.16c0,.46.39.7,1.16.7h.21c.77,0,1.17-.23,1.17-.7v-7.7h9.16v7.7c0,.46.39.7,1.16.7h.21c.77,0,1.16-.23,1.16-.7V132.33C298.34,131.86,298,131.63,297.18,131.63Z"/><path class="cls-1" d="M314.31,131.68H302.12a.57.57,0,0,0-.49.24,1.16,1.16,0,0,0-.15.67V133a1.16,1.16,0,0,0,.15.67.57.57,0,0,0,.49.24H307v15.58c0,.46.39.7,1.16.7h.21c.77,0,1.16-.23,1.16-.7V133.91h4.79a.56.56,0,0,0,.51-.24A1.25,1.25,0,0,0,315,133v-.42a1.25,1.25,0,0,0-.14-.67A.56.56,0,0,0,314.31,131.68Z"/><path class="cls-1" d="M330,146.76c-.08,0-.21,0-.55.25a11.52,11.52,0,0,1-1.77.76,7,7,0,0,1-2.15.29,5.49,5.49,0,0,1-4.44-1.71c-1-1.14-1.44-3-1.44-5.42s.49-4.35,1.45-5.48a5.66,5.66,0,0,1,4.53-1.7,6.8,6.8,0,0,1,1.9.24,6.94,6.94,0,0,1,1.41.56c.61.34.68.34.72.34.21,0,.42-.2.67-.63a2.14,2.14,0,0,0,.34-1c0-.28-.25-.55-.78-.84a7.18,7.18,0,0,0-1.91-.65,11.57,11.57,0,0,0-2.41-.25c-5.67,0-8.55,3.16-8.55,9.38,0,3.19.7,5.58,2.07,7.09s3.54,2.29,6.42,2.29a11,11,0,0,0,2.7-.32,7.65,7.65,0,0,0,2-.77c.54-.32.8-.62.8-.91a2.05,2.05,0,0,0-.36-.9C330.41,147,330.2,146.76,330,146.76Z"/><path class="cls-1" d="M341.57,132.13c-.11-.34-.49-.5-1.16-.5h-.75c-.67,0-1.05.17-1.16.5l-6.16,17.08a1.31,1.31,0,0,0-.08.4c0,.57.93.57,1.24.57h.13c.67,0,1.05-.17,1.16-.5l1.45-4.18h7.47l1.5,4.18c.11.34.49.5,1.16.5h.21c.31,0,1.24,0,1.24-.57a1,1,0,0,0-.09-.38Zm1.34,11.15h-5.86l2.67-7.58a7.52,7.52,0,0,0,.29-1,9.26,9.26,0,0,0,.23,1Z"/><path class="cls-1" d="M360.7,132.79a7.65,7.65,0,0,0-4.11-1.11h-5.28a.78.78,0,0,0-.9.91v16.9c0,.46.39.7,1.16.7h.21c.77,0,1.16-.23,1.16-.7v-7.1h3.91a7.56,7.56,0,0,0,2.3-.41,5,5,0,0,0,3.36-5.07C362.51,134.92,361.9,133.54,360.7,132.79Zm-.8,4.11a3,3,0,0,1-1,2.53,3.41,3.41,0,0,1-2.06.73h-3.93v-6.25h3.57a4.27,4.27,0,0,1,2.4.67A2.59,2.59,0,0,1,359.9,136.9Z"/><path class="cls-1" d="M94.31,316.26a26.13,26.13,0,0,1-6.88-4.83,25,25,0,0,1-5.12,6q-2.64,1.9-2.93,2H75.71V291.66h5.86a46.23,46.23,0,0,0,6.15,12.89q8.93,12.74,23.14,12.74,8.35,0,13.33-5t5-13.33a14,14,0,0,0-2.86-8.64,30.28,30.28,0,0,0-7.1-6.74q-4.25-2.93-11.86-7.32a157.33,157.33,0,0,1-15.67-9.81,40.43,40.43,0,0,1-10.25-11.06,28.64,28.64,0,0,1-4.25-15.74,22.15,22.15,0,0,1,4-13q4-5.78,12.08-9.22t19.77-3.44a34.09,34.09,0,0,1,17,4.83,33.68,33.68,0,0,1,6.44,4.69,26.92,26.92,0,0,1,5.12-6q2.64-1.9,2.93-2h3.66v27.82h-5.86a43.12,43.12,0,0,0-5.71-12.74,32.16,32.16,0,0,0-8.71-9.23A20.23,20.23,0,0,0,116,217.72a12.78,12.78,0,0,0-9.81,4.54,16.6,16.6,0,0,0-4.1,11.57,16.11,16.11,0,0,0,3.15,9.74A32.55,32.55,0,0,0,113,251.1q4.61,3.22,12.52,7.76a176.12,176.12,0,0,1,14.94,9.37,37.73,37.73,0,0,1,9.66,10.18,25.07,25.07,0,0,1,4,14,24.68,24.68,0,0,1-4.54,14.42q-4.54,6.52-13.62,10.32t-22.11,3.81A41.85,41.85,0,0,1,94.31,316.26Z"/><path class="cls-1" d="M275.66,241.28v71l11.71,4.39v2.2H259.55v-2.2l11.71-4.39V221.51L261,218.58v-2.2h15.37q7.76,0,12.15,2.78a36.83,36.83,0,0,1,8.35,7.47l46.86,54.91V223L332,218.58v-2.2h27.82v2.2L348.14,223v98.11h-4.39Z"/><path class="cls-1" d="M170.5,241.28v71l11.71,4.39v2.2H154.4v-2.2l11.71-4.39V221.51l-10.25-2.93v-2.2h15.37q7.76,0,12.15,2.78a36.83,36.83,0,0,1,8.35,7.47l46.86,54.91V223l-11.71-4.39v-2.2H254.7v2.2L243,223v98.11h-4.39Z"/><path class="cls-1" d="M381.08,314.08q-15.58-11.15-20.46-36.3-3.2-16.53.17-29.49a41.42,41.42,0,0,1,12.47-21.06q9.09-8.1,22.61-10.72a36.74,36.74,0,0,1,24.67,4.91,26.92,26.92,0,0,1,3.89-6.87q2.23-2.37,2.48-2.57l3.59-.7,5.29,27.31-5.75,1.11a43.12,43.12,0,0,0-8-11.42,32.16,32.16,0,0,0-10.31-7.4,20.23,20.23,0,0,0-12.41-1.32q-9.92,1.92-14.23,14.69t.71,38.64q5.1,26.31,14.4,36.21t21.67,7.51a24.39,24.39,0,0,0,12.13-6.3,30.51,30.51,0,0,0,8-12.06,26,26,0,0,0,1.22-14.11l3.59-.7a29.21,29.21,0,0,1-1.42,16.16,33,33,0,0,1-9.73,13.67,34.24,34.24,0,0,1-15.92,7.49Q396.67,325.23,381.08,314.08Z"/><path class="cls-1" d="M268.91,425.7v-.89l4.15-1.19V391.08l-6.22,4.39L265.65,394l10.79-9.78h6.4v39.42l4.15,1.19v.89Z"/><path class="cls-1" d="M298.4,415.89a31.73,31.73,0,0,1,3.94-7.77,81.58,81.58,0,0,1,6-7.32,79.09,79.09,0,0,0,5.13-6.08,18.74,18.74,0,0,0,2.82-5.48h-21a11.11,11.11,0,0,1-2,5.34,8.31,8.31,0,0,1-1.54,1.78H290V384.8h28.16v2.67a17.88,17.88,0,0,1-1,6.17q-1,2.85-3.23,7.35-2.13,4.21-3.47,7.47a45.14,45.14,0,0,0-2.28,7.8,49.16,49.16,0,0,0-.95,10H296.77A30.65,30.65,0,0,1,298.4,415.89Z"/><path class="cls-1" d="M196,422.88a13.84,13.84,0,0,1,1.34-6.11,19,19,0,0,1,3.27-4.8q1.93-2,5.06-4.83,2.9-2.56,4.55-4.29a17.14,17.14,0,0,0,2.79-3.92,10.14,10.14,0,0,0,1.14-4.75,8.67,8.67,0,0,0-1.82-5.86,6,6,0,0,0-4.72-2.1,12.93,12.93,0,0,0-3.35.45l-1.19.4v9.1l-.74.17a12.52,12.52,0,0,1-1.53.11,4,4,0,0,1-4.26-4.26,5.52,5.52,0,0,1,1.39-3.52,9.85,9.85,0,0,1,4.15-2.79,18.35,18.35,0,0,1,6.68-1.08q7.67,0,11.37,3.07a10.55,10.55,0,0,1,3.69,8.58,10,10,0,0,1-1.79,6,15.73,15.73,0,0,1-4.38,4.15,71.34,71.34,0,0,1-6.91,3.75q-3.64,1.76-5.88,3.1a21.69,21.69,0,0,0-4.15,3.21,10.67,10.67,0,0,0-2.7,4.26h21a10.62,10.62,0,0,1,1.93-5.11,8,8,0,0,1,1.48-1.71h1.71v11.37H196Z"/><path class="cls-1" d="M237.68,423.85a16.62,16.62,0,0,1-5.94-7.13,29.58,29.58,0,0,1,0-22.34,16.63,16.63,0,0,1,5.94-7.13,15.51,15.51,0,0,1,16.71,0,16.65,16.65,0,0,1,5.94,7.13,29.6,29.6,0,0,1,0,22.34,16.64,16.64,0,0,1-5.94,7.13,15.51,15.51,0,0,1-16.71,0Zm14.89-18.3q0-19.61-6.54-19.61t-6.54,19.61q0,19.61,6.54,19.61T252.58,405.55Z"/><rect class="cls-1" x="106.43" y="185.73" width="296.43" height="2"/><rect class="cls-1" x="106.43" y="174.81" width="296.43" height="2"/><rect class="cls-1" x="113.28" y="354.18" width="296.43" height="2"/></svg>